<?xml version="1.0" encoding="utf-8"?>
<svg width="32" height="32" viewBox="0 0 32 32" xmlns="http://www.w3.org/2000/svg">
  <defs>
    <filter id="a" width="111.7%" height="111.7%" x="-5.8%" y="-4.2%" filterUnits="objectBoundingBox">
      <feOffset dy=".5" in="SourceAlpha" result="shadowOffsetOuter1"/>
      <feGaussianBlur in="shadowOffsetOuter1" result="shadowBlurOuter1" stdDeviation=".5"/>
      <feComposite in="shadowBlurOuter1" in2="SourceAlpha" operator="out" result="shadowBlurOuter1"/>
      <feColorMatrix in="shadowBlurOuter1" values="0 0 0 0 0 0 0 0 0 0 0 0 0 0 0 0 0 0 0.199473505 0"/>
    </filter>
    <circle id="b" cx="16" cy="15" r="15"/>
    <path id="e" d="M21.002 8.855A7.947 7.947 0 0124 14.278l-2.847-.708a5.357 5.357 0 00-3.86-3.667c-2.866-.713-5.76.991-6.465 3.806-.703 2.815 1.05 5.675 3.917 6.388a5.373 5.373 0 005.134-1.43l2.847.707a7.974 7.974 0 01-5.2 3.385L16.716 26l-2.596-.645.644-2.575a8.28 8.28 0 01-1.298-.323l-.643 2.575-2.596-.646.81-3.241c-2.378-1.875-3.575-4.996-2.804-8.081.771-3.086 3.297-5.281 6.28-5.823L15.323 4l2.596.645-.644 2.575a8.28 8.28 0 011.298.323l.643-2.575 2.596.646-.81 3.241z"/>
    <linearGradient x1="0" x2="0" y1="0" y2="1" id="gradient-0">
      <stop offset="0" style="stop-color: rgb(255, 255, 255); stop-opacity: 0.5"/>
      <stop offset="1" style="stop-color: rgb(0, 0, 0); stop-opacity: 0.5"/>
    </linearGradient>
  </defs>
  <g fill="none" fill-rule="evenodd">
    <g fill-rule="nonzero">
      <circle cx="16" cy="15" r="15" transform="matrix(1, 0, 0, 1, 0, 0)" filter="url(#a)" style="fill: rgb(232, 232, 232);"/>
      <circle cx="16" cy="15" r="15" transform="matrix(1, 0, 0, 1, 0, 0)" fill-rule="evenodd" style="fill: rgb(232, 232, 232);"/>
      <circle cx="16" cy="15" r="15" transform="matrix(1, 0, 0, 1, 0, 0)" fill-rule="evenodd" style="mix-blend-mode: soft-light; fill: rgb(232, 232, 232);"/>
      <circle cx="16" cy="15" r="14.5" stroke="#000" stroke-opacity=".097" style="fill: rgb(232, 232, 232);"/>
    </g>
    <text style="white-space: pre; fill: url(#gradient-0); mix-blend-mode: soft-light; font-size: 0.9px;" x="15.007" y="13.022">?</text>
  </g>
</svg>